<svg width="30" height="28" viewBox="0 0 30 28" fill="none" xmlns="http://www.w3.org/2000/svg">
<rect width="30" height="28" fill="#1E1E1E"/>
<path d="M0 28V0H29.5V28H0Z" fill="black" fill-opacity="0.1"/>
<path d="M9 17.5L6 14.5V12.5H9.5V15L11.5 17L11 17.5V19H9V17.5Z" fill="#00B2F1" stroke="black" stroke-opacity="0.3"/>
<path d="M23 16.5L25.5 14.5V12.5H22V15L20 17L20.5 17.5V19H23V16.5Z" fill="#00B2F1" stroke="black" stroke-opacity="0.3"/>
<circle cx="16" cy="9.25" r="2.25" fill="#00B2F1"/>
<circle cx="16" cy="9.25" r="2.5" stroke="black" stroke-opacity="0.3" stroke-width="0.5"/>
<circle cx="22" cy="10" r="1.5" fill="#00B2F1"/>
<circle cx="22" cy="10" r="1.75" stroke="black" stroke-opacity="0.3" stroke-width="0.5"/>
<circle cx="10" cy="10" r="1.5" fill="#00B2F1"/>
<circle cx="10" cy="10" r="1.75" stroke="black" stroke-opacity="0.3" stroke-width="0.5"/>
<path d="M22.5 12.5H9.5V15L13.5 18.5V21.5H18.5V18.5L22.5 15V12.5Z" fill="#00B2F1" stroke="black" stroke-opacity="0.3"/>
</svg>
