<svg width="29" height="28" viewBox="0 0 29 28" fill="none" xmlns="http://www.w3.org/2000/svg">
<rect width="29" height="28" fill="#1E1E1E"/>
<path d="M28.6044 0H0.407578C0.186664 0 0 0.179085 0 0.399999V27.6C0 27.8209 0.179086 28 0.4 28H28.6C28.8209 28 29 27.8209 29 27.6V0.4C29 0.179086 28.8253 0 28.6044 0Z" fill="#0093B2"/>
<path d="M19 10.5V17.5" stroke="#0089A6" stroke-opacity="0.3"/>
<path d="M9.33133 10.1029C9.43918 10.1029 9.54246 10.0593 9.61775 9.98212L13.3823 6.12077C13.4575 6.04355 13.5608 6 13.6687 6L14.6 6C14.8209 6 15 6.17909 15 6.4L15 21.6C15 21.8209 14.8209 22 14.6 22L13.6687 22C13.5608 22 13.4575 21.9565 13.3823 21.8792L9.61774 18.0179C9.54246 17.9407 9.43918 17.8971 9.33133 17.8971L6.4 17.8971C6.17909 17.8971 6 17.718 6 17.4971L6 10.5029C6 10.282 6.17909 10.1029 6.4 10.1029L9.33133 10.1029Z" fill="#DDE4E7" stroke="#0089A6" stroke-opacity="0.3" stroke-linejoin="round"/>
<path d="M16 11.4C16 11.1791 16.1791 11 16.4 11H17.6C17.8209 11 18 11.1791 18 11.4V16.6C18 16.8209 17.8209 17 17.6 17H16.4C16.1791 17 16 16.8209 16 16.6V11.4Z" fill="#DDE4E7" stroke="#0089A6" stroke-opacity="0.3" stroke-linejoin="round"/>
<path d="M20 9.4C20 9.17909 20.1791 9 20.4 9H21.6C21.8209 9 22 9.17909 22 9.4V18.6C22 18.8209 21.8209 19 21.6 19H20.4C20.1791 19 20 18.8209 20 18.6V9.4Z" fill="#DDE4E7" stroke="#0089A6" stroke-opacity="0.3" stroke-linejoin="round"/>
<path d="M23 6.4C23 6.17909 23.1791 6 23.4 6H25.6C25.8209 6 26 6.17909 26 6.4V21.6C26 21.8209 25.8209 22 25.6 22H23.4C23.1791 22 23 21.8209 23 21.6V6.4Z" fill="#DDE4E7" stroke="#0089A6" stroke-opacity="0.3" stroke-linejoin="round"/>
<path d="M20.5 10.5L17.5 13V15L20.5 17V10.5Z" fill="#DDE4E7" fill-opacity="0.3"/>
</svg>
